<?xml version="1.0" encoding="UTF-8" standalone="no"?>
<!-- Generator: Adobe Illustrator 17.1.0, SVG Export Plug-In . SVG Version: 6.00 Build 0)  -->

<svg
   xmlns:dc="http://purl.org/dc/elements/1.1/"
   xmlns:cc="http://creativecommons.org/ns#"
   xmlns:rdf="http://www.w3.org/1999/02/22-rdf-syntax-ns#"
   xmlns:svg="http://www.w3.org/2000/svg"
   xmlns="http://www.w3.org/2000/svg"
   xmlns:sodipodi="http://sodipodi.sourceforge.net/DTD/sodipodi-0.dtd"
   xmlns:inkscape="http://www.inkscape.org/namespaces/inkscape"
   version="1.1"
   id="Capa_1"
   x="0px"
   y="0px"
   viewBox="0 0 510.28305 315.94342"
   xml:space="preserve"
   sodipodi:docname="business-card.svg"
   width="510.28305"
   height="315.94342"
   inkscape:version="0.92.4 (5da689c313, 2019-01-14)"><metadata
   id="metadata59"><rdf:RDF><cc:Work
       rdf:about=""><dc:format>image/svg+xml</dc:format><dc:type
         rdf:resource="http://purl.org/dc/dcmitype/StillImage" /><dc:title></dc:title></cc:Work></rdf:RDF></metadata><defs
   id="defs57">
	
	
	
	
	
	
	
	
	
	
</defs><sodipodi:namedview
   pagecolor="#ffffff"
   bordercolor="#666666"
   borderopacity="1"
   objecttolerance="10"
   gridtolerance="10"
   guidetolerance="10"
   inkscape:pageopacity="0"
   inkscape:pageshadow="2"
   inkscape:window-width="1258"
   inkscape:window-height="822"
   id="namedview55"
   showgrid="false"
   fit-margin-top="0"
   fit-margin-left="0"
   fit-margin-right="0"
   fit-margin-bottom="0"
   inkscape:zoom="1.06"
   inkscape:cx="255.0566"
   inkscape:cy="158.11322"
   inkscape:window-x="0"
   inkscape:window-y="0"
   inkscape:window-maximized="0"
   inkscape:current-layer="Capa_1" />
<rect
   style="fill:#ffffff;fill-opacity:1;fill-rule:nonzero;stroke:#000000;stroke-width:15;stroke-miterlimit:4;stroke-dasharray:none;stroke-opacity:1"
   id="rect4580"
   width="495.28305"
   height="300.94342"
   x="7.5"
   y="7.5"
   ry="26.415094" /><path
   inkscape:connector-curvature="0"
   id="path4"
   d="m 79.056603,117.8302 c 22.055997,0 39.999997,-17.944004 39.999997,-40.000004 0,-3.383 -0.424,-6.747 -1.262,-9.998 -1.101,-4.278 -5.461,-6.854 -9.742,-5.752 -4.278,1.102 -6.854,5.463 -5.752,9.742 0.501,1.948 0.756,3.97 0.756,6.008 0,13.233 -10.766997,24.000004 -23.999997,24.000004 -13.233,0 -24,-10.767004 -24,-24.000004 0,-13.233 10.767,-24 24,-24 2.042,0 4.069,0.256 6.022,0.76 4.278,1.105 8.641,-1.469 9.745,-5.747 1.104,-4.278 -1.469,-8.641 -5.747,-9.745 -3.258,-0.842 -6.629,-1.268 -10.02,-1.268 -22.056,0 -40,17.944 -40,40 0,22.056 17.944,40.000004 40,40.000004 z" /><path
   inkscape:connector-curvature="0"
   id="path6"
   d="m 143.0566,85.830196 h 24 c 4.418,0 8,-3.582 8,-8 0,-4.418 -3.582,-8 -8,-8 h -24 c -4.418,0 -8,3.582 -8,8 0,4.418 3.582,8 8,8 z" /><path
   inkscape:connector-curvature="0"
   id="path8"
   d="m 199.0566,85.830196 h 104 c 4.418,0 8,-3.582 8,-8 0,-4.418 -3.582,-8 -8,-8 h -104 c -4.418,0 -8,3.582 -8,8 0,4.418 3.582,8 8,8 z" /><path
   inkscape:connector-curvature="0"
   id="path10"
   d="m 455.0566,141.8302 h -160 c -4.418,0 -8,3.582 -8,8 0,4.418 3.582,8 8,8 h 160 c 4.418,0 8,-3.582 8,-8 0,-4.418 -3.582,-8 -8,-8 z" /><path
   inkscape:connector-curvature="0"
   id="path12"
   d="m 455.0566,173.8302 h -232 c -4.418,0 -8,3.582 -8,8 0,4.418 3.582,8 8,8 h 232 c 4.418,0 8,-3.582 8,-8 0,-4.418 -3.582,-8 -8,-8 z" /><path
   inkscape:connector-curvature="0"
   id="path14"
   d="m 79.056603,213.8302 c 0,4.418 3.582,8 8,8 H 191.0566 c 4.418,0 8,-3.582 8,-8 0,-4.418 -3.582,-8 -8,-8 H 87.056603 c -4.418,0 -8,3.582 -8,8 z" /><path
   inkscape:connector-curvature="0"
   id="path16"
   d="m 55.056603,205.8302 c -2.11,0 -4.17,0.85 -5.66,2.34 -1.49,1.49 -2.34,3.55 -2.34,5.66 0,2.11 0.85,4.17 2.34,5.66 1.49,1.49 3.56,2.34 5.66,2.34 2.11,0 4.17,-0.85 5.66,-2.34 1.49,-1.49 2.34,-3.55 2.34,-5.66 0,-2.11 -0.85,-4.17 -2.34,-5.66 -1.49,-1.49 -3.55,-2.34 -5.66,-2.34 z" /><path
   inkscape:connector-curvature="0"
   id="path18"
   d="m 55.056603,237.8302 c -2.1,0 -4.17,0.85 -5.66,2.34 -1.49,1.49 -2.34,3.55 -2.34,5.66 0,2.11 0.85,4.17 2.34,5.66 1.49,1.49 3.56,2.34 5.66,2.34 2.11,0 4.17,-0.85 5.66,-2.34 1.49,-1.49 2.34,-3.56 2.34,-5.66 0,-2.1 -0.85,-4.17 -2.34,-5.66 -1.49,-1.49 -3.56,-2.34 -5.66,-2.34 z" /><path
   inkscape:connector-curvature="0"
   id="path20"
   d="M 247.0566,237.8302 H 87.056603 c -4.418,0 -8,3.582 -8,8 0,4.418 3.582,8 8,8 H 247.0566 c 4.418,0 8,-3.582 8,-8 0,-4.418 -3.582,-8 -8,-8 z" />
<g
   id="g24"
   transform="translate(-0.94339657,-98.169804)">
</g>
<g
   id="g26"
   transform="translate(-0.94339657,-98.169804)">
</g>
<g
   id="g28"
   transform="translate(-0.94339657,-98.169804)">
</g>
<g
   id="g30"
   transform="translate(-0.94339657,-98.169804)">
</g>
<g
   id="g32"
   transform="translate(-0.94339657,-98.169804)">
</g>
<g
   id="g34"
   transform="translate(-0.94339657,-98.169804)">
</g>
<g
   id="g36"
   transform="translate(-0.94339657,-98.169804)">
</g>
<g
   id="g38"
   transform="translate(-0.94339657,-98.169804)">
</g>
<g
   id="g40"
   transform="translate(-0.94339657,-98.169804)">
</g>
<g
   id="g42"
   transform="translate(-0.94339657,-98.169804)">
</g>
<g
   id="g44"
   transform="translate(-0.94339657,-98.169804)">
</g>
<g
   id="g46"
   transform="translate(-0.94339657,-98.169804)">
</g>
<g
   id="g48"
   transform="translate(-0.94339657,-98.169804)">
</g>
<g
   id="g50"
   transform="translate(-0.94339657,-98.169804)">
</g>
<g
   id="g52"
   transform="translate(-0.94339657,-98.169804)">
</g>
</svg>