<?xml version="1.0" encoding="UTF-8" standalone="no"?>
<!-- Generator: Adobe Illustrator 17.1.0, SVG Export Plug-In . SVG Version: 6.00 Build 0)  -->

<svg
   xmlns:dc="http://purl.org/dc/elements/1.1/"
   xmlns:cc="http://creativecommons.org/ns#"
   xmlns:rdf="http://www.w3.org/1999/02/22-rdf-syntax-ns#"
   xmlns:svg="http://www.w3.org/2000/svg"
   xmlns="http://www.w3.org/2000/svg"
   xmlns:sodipodi="http://sodipodi.sourceforge.net/DTD/sodipodi-0.dtd"
   xmlns:inkscape="http://www.inkscape.org/namespaces/inkscape"
   version="1.1"
   id="Capa_1"
   x="0px"
   y="0px"
   viewBox="0 0 510.28305 315.94342"
   xml:space="preserve"
   sodipodi:docname="creature_card.svg"
   width="510.28305"
   height="315.94342"
   inkscape:version="0.92.4 (5da689c313, 2019-01-14)"><metadata
   id="metadata59"><rdf:RDF><cc:Work
       rdf:about=""><dc:format>image/svg+xml</dc:format><dc:type
         rdf:resource="http://purl.org/dc/dcmitype/StillImage" /><dc:title /></cc:Work></rdf:RDF></metadata><defs
   id="defs57">
	
	
	
	
	
	
	
	
	
	
</defs><sodipodi:namedview
   pagecolor="#ffffff"
   bordercolor="#666666"
   borderopacity="1"
   objecttolerance="10"
   gridtolerance="10"
   guidetolerance="10"
   inkscape:pageopacity="0"
   inkscape:pageshadow="2"
   inkscape:window-width="1920"
   inkscape:window-height="1017"
   id="namedview55"
   showgrid="false"
   fit-margin-top="0"
   fit-margin-left="0"
   fit-margin-right="0"
   fit-margin-bottom="0"
   inkscape:zoom="1.2065215"
   inkscape:cx="491.2078"
   inkscape:cy="232.80295"
   inkscape:window-x="-8"
   inkscape:window-y="-8"
   inkscape:window-maximized="1"
   inkscape:current-layer="Capa_1" />
<rect
   style="fill:#ebc000;fill-opacity:1;fill-rule:nonzero;stroke:#000000;stroke-width:15;stroke-miterlimit:4;stroke-dasharray:none;stroke-opacity:1"
   id="rect4580"
   width="495.28305"
   height="300.94342"
   x="7.5"
   y="7.5"
   ry="26.415094" /><path
   style="fill:#663399;fill-opacity:1;fill-rule:nonzero;stroke:none;stroke-width:15;stroke-miterlimit:4;stroke-dasharray:none;stroke-opacity:1"
   d="m 463.33301,14.932596 31.90438,31.751433 V 96.29901 L 408.769,14.932596 Z"
   id="rect4539"
   inkscape:connector-curvature="0"
   sodipodi:nodetypes="ccccc" /><path
   inkscape:connector-curvature="0"
   id="path10"
   d="m 384.60614,141.8302 h -160 c -4.418,0 -8,3.582 -8,8 0,4.418 3.582,8 8,8 h 160 c 4.418,0 8,-3.582 8,-8 0,-4.418 -3.582,-8 -8,-8 z" /><path
   inkscape:connector-curvature="0"
   id="path12"
   d="m 455.0566,173.8302 h -232 c -4.418,0 -8,3.582 -8,8 0,4.418 3.582,8 8,8 h 232 c 4.418,0 8,-3.582 8,-8 0,-4.418 -3.582,-8 -8,-8 z" /><path
   inkscape:connector-curvature="0"
   id="path14"
   d="m 213.3269,210.51488 c 0,4.418 3.582,8 8,8 h 103.99999 c 4.418,0 8,-3.582 8,-8 0,-4.418 -3.582,-8 -8,-8 H 221.3269 c -4.418,0 -8,3.582 -8,8 z" /><path
   inkscape:connector-curvature="0"
   id="path20"
   d="M 381.32689,233.68606 H 221.3269 c -4.418,0 -8,3.582 -8,8 0,4.418 3.582,8 8,8 h 159.99999 c 4.418,0 8,-3.582 8,-8 0,-4.418 -3.582,-8 -8,-8 z" />
<g
   id="g24"
   transform="translate(-0.94339657,-98.169804)">
</g>
<g
   id="g26"
   transform="translate(-0.94339657,-98.169804)">
</g>
<g
   id="g28"
   transform="translate(-0.94339657,-98.169804)">
</g>
<g
   id="g30"
   transform="translate(-0.94339657,-98.169804)">
</g>
<g
   id="g32"
   transform="translate(-0.94339657,-98.169804)">
</g>
<g
   id="g34"
   transform="translate(-0.94339657,-98.169804)">
</g>
<g
   id="g36"
   transform="translate(-0.94339657,-98.169804)">
</g>
<g
   id="g38"
   transform="translate(-0.94339657,-98.169804)">
</g>
<g
   id="g40"
   transform="translate(-0.94339657,-98.169804)">
</g>
<g
   id="g42"
   transform="translate(-0.94339657,-98.169804)">
</g>
<g
   id="g44"
   transform="translate(-0.94339657,-98.169804)">
</g>
<g
   id="g46"
   transform="translate(-0.94339657,-98.169804)">
</g>
<g
   id="g48"
   transform="translate(-0.94339657,-98.169804)">
</g>
<g
   id="g50"
   transform="translate(-0.94339657,-98.169804)">
</g>
<g
   id="g52"
   transform="translate(-0.94339657,-98.169804)">
</g>
<text
   xml:space="preserve"
   style="font-style:normal;font-weight:normal;font-size:25.75420189px;line-height:1.25;font-family:sans-serif;letter-spacing:0px;word-spacing:0px;fill:#000000;fill-opacity:1;stroke:none;stroke-width:0.64385504"
   x="46.385529"
   y="66.667625"
   id="text4544"><tspan
     sodipodi:role="line"
     id="tspan4542"
     x="46.385529"
     y="66.667625"
     style="stroke-width:0.64385504">CREATURE CARD</tspan></text>
</svg>