<?xml version="1.0" encoding="UTF-8" standalone="no"?>
<!-- Created with Inkscape (http://www.inkscape.org/) -->

<svg
   xmlns:dc="http://purl.org/dc/elements/1.1/"
   xmlns:cc="http://creativecommons.org/ns#"
   xmlns:rdf="http://www.w3.org/1999/02/22-rdf-syntax-ns#"
   xmlns:svg="http://www.w3.org/2000/svg"
   xmlns="http://www.w3.org/2000/svg"
   xmlns:sodipodi="http://sodipodi.sourceforge.net/DTD/sodipodi-0.dtd"
   xmlns:inkscape="http://www.inkscape.org/namespaces/inkscape"
   version="1.1"
   id="svg2"
   width="1035.1979"
   height="766.26123"
   viewBox="0 0 1035.1978 766.26123"
   sodipodi:docname="multiple_question_marks.svg"
   inkscape:version="0.92.4 (5da689c313, 2019-01-14)">
  <metadata
     id="metadata8">
    <rdf:RDF>
      <cc:Work
         rdf:about="">
        <dc:format>image/svg+xml</dc:format>
        <dc:type
           rdf:resource="http://purl.org/dc/dcmitype/StillImage" />
        <dc:title></dc:title>
      </cc:Work>
    </rdf:RDF>
  </metadata>
  <defs
     id="defs6" />
  <sodipodi:namedview
     pagecolor="#ffffff"
     bordercolor="#666666"
     borderopacity="1"
     objecttolerance="10"
     gridtolerance="10"
     guidetolerance="10"
     inkscape:pageopacity="0"
     inkscape:pageshadow="2"
     inkscape:window-width="1920"
     inkscape:window-height="1017"
     id="namedview4"
     showgrid="false"
     fit-margin-top="0"
     fit-margin-left="0"
     fit-margin-right="0"
     fit-margin-bottom="0"
     inkscape:zoom="0.55715236"
     inkscape:cx="512.58319"
     inkscape:cy="377.51151"
     inkscape:window-x="-8"
     inkscape:window-y="-8"
     inkscape:window-maximized="1"
     inkscape:current-layer="svg2" />
  <path
     style="fill:#000000;stroke-width:1.33333337"
     d="m 290.00197,766.09724 c -9.49844,-0.80908 -15.47992,-7.34904 -15.47992,-16.92524 0,-13.969 15.5198,-22.28459 27.24832,-14.59976 9.12428,5.97845 9.27191,22.0684 0.2624,28.59976 -3.97737,2.88336 -6.19426,3.42238 -12.0308,2.92524 z m 441.18676,-12.21487 c -12.68309,-1.12621 -18.34017,-7.54808 -18.32473,-20.80204 0.012,-10.49628 7.01315,-18.44239 17.95212,-20.37583 15.89972,-2.81024 28.12537,8.79834 25.77471,24.47374 -0.97176,6.48018 -7.68175,15.0205 -12.5358,15.95532 -1.58198,0.30465 -3.32407,0.75761 -3.87131,1.00656 -0.54724,0.24894 -4.59499,0.13293 -8.99499,-0.25775 z m -196.8997,-30.00743 c -11.7352,-7.97428 -11.20064,-26.89712 0.98542,-34.88172 4.68836,-3.07193 14.82696,-2.7758 21.44733,0.62643 7.26999,3.73608 10.31163,10.03481 9.51055,19.69479 -0.568,6.84932 -1.187,8.13788 -6.11947,12.73884 -5.05832,4.71834 -6.09311,5.11872 -13.22965,5.11872 -6.03854,0 -8.80978,-0.7255 -12.59418,-3.29706 z m -245.1461,-35.03628 c -0.0252,-6.41666 -0.28752,-16.16666 -0.58294,-21.66666 -0.29544,-5.5 -0.91763,-19.1131 -1.38266,-30.25132 l -0.8455,-20.25131 5.76178,-1.54675 c 22.73842,-6.10408 36.2893,-15.13148 41.95619,-27.95062 3.61433,-8.176 4.15853,-10.59847 4.15853,-18.5114 0,-23.21039 -17.30721,-41.69243 -39.96593,-42.67887 -16.77177,-0.73016 -32.99167,7.88223 -42.37037,22.49768 -5.04003,7.8542 -7.03104,7.73425 -4.63016,-0.27893 0.9385,-3.13234 2.67506,-9.01402 3.85904,-13.0704 l 2.15268,-7.37524 8.96757,-3.01022 c 12.50477,-4.19757 13.97791,-4.45032 28.72471,-4.92829 13.35678,-0.43293 26.1453,1.98936 36.54336,6.92173 11.63786,5.52047 23.85913,21.30691 27.0372,34.92444 1.98784,8.51762 1.09123,30.58406 -1.52412,37.5095 -2.18381,5.78277 -8.14331,14.87517 -12.8055,19.53736 -4.47134,4.47134 -17.41844,12.86397 -23.22013,15.05186 -23.89325,9.01044 -23.83875,8.93927 -25.81016,33.70864 -0.48308,6.06951 -1.09127,13.43547 -1.35153,16.3688 -0.26026,2.93334 -0.50764,7.88334 -0.54974,11 -0.0556,4.11414 -0.62448,5.66667 -2.07653,5.66667 -1.62191,0 -2.00865,-2.20553 -2.04579,-11.66667 z m 432.18584,5.73855 c -3.41149,-3.73669 -4.08178,-6.53824 -4.16434,-17.40521 -0.0767,-10.09844 0.005,-10.70316 2.5224,-18.66667 4.30366,-13.61413 16.35361,-32.32229 25.17162,-39.08021 14.89234,-11.41316 23.19036,-19.4699 27.03935,-26.25312 3.34135,-5.8886 4.55177,-17.23096 2.47469,-23.18927 -3.08209,-8.84132 -15.8313,-17.69061 -28.092,-19.49883 -9.0205,-1.33034 -19.67201,2.41656 -34.19962,12.03048 -9.99291,6.613 -17.16542,5.34972 -21.2259,-3.73845 -4.56316,-10.21333 0.59358,-18.61039 16.33376,-26.59732 12.07343,-6.12633 20.35243,-7.62703 39.33334,-7.12975 18.30089,0.47946 27.05364,2.99192 38.88172,11.16096 8.77381,6.05962 11.98624,10.08038 18.80077,23.53166 2.18834,4.31957 2.78207,22.58742 0.98447,30.29033 -0.91644,3.92711 -3.67632,10.4938 -6.13304,14.59267 -4.25831,7.10468 -7.67172,10.78029 -29.27039,31.51884 -12.95235,12.43656 -17.27997,19.86522 -20.01784,34.36201 -0.55399,2.93333 -1.15576,5.93333 -1.33728,6.66667 -0.18151,0.73333 -0.71776,3.43333 -1.19165,6 -1.14588,6.20629 -3.87982,10.16538 -8.76364,12.6909 -5.45216,2.81943 -13.98254,2.17979 -17.14642,-1.28569 z M 46.155115,686.63474 c -2.03514,-1.10337 -4.58281,-2.88868 -5.66149,-3.96736 -6.18743,-6.18742 -6.14295,-23.08422 0.0781,-29.65582 5.31069,-5.60995 20.66207,-7.67132 27.94022,-3.75178 6.09523,3.2825 7.70196,6.62134 8.39802,17.45131 l 0.6131,9.53911 -5.23891,5.61637 c -4.92346,5.27821 -5.75643,5.65125 -13.83382,6.19535 -6.05166,0.40765 -9.68983,-0.0147 -12.29519,-1.42718 z M 534.9325,642.83866 c 0.90412,-24.81792 1.36244,-27.56737 6.27896,-37.66666 3.86408,-7.93744 8.90724,-14.15567 14.59848,-18 1.62847,-1.1 4.19668,-3.05 5.70716,-4.33334 1.51048,-1.28333 3.13214,-2.33333 3.60368,-2.33333 1.37538,0 18.03747,-16.33567 20.48175,-20.08049 7.28676,-11.16391 7.42105,-25.47043 0.34293,-36.53531 -9.28858,-14.5204 -24.63353,-20.63588 -40.09995,-15.98117 -16.74364,5.03909 -29.2069,21.83321 -29.88048,40.26364 -0.10493,2.87124 -0.60422,3 -11.63292,3 h -11.52326 l 0.8347,-7.66667 c 1.48194,-13.6112 3.96136,-20.94336 10.58196,-31.29303 11.53402,-18.03057 29.1464,-26.88573 52.94654,-26.62048 6.2425,0.0696 12.25001,0.34023 13.35001,0.60146 11.14302,2.6462 19.23315,7.16838 27.35624,15.29148 11.32963,11.32964 15.24595,21.28501 15.35016,39.02057 0.14128,24.04219 -5.15285,33.26991 -31.31209,54.57725 -4.89137,3.98415 -10.17721,9.08415 -11.74629,11.33334 -1.56908,2.24917 -3.19564,4.38941 -3.61458,4.75608 -0.41893,0.36666 -1.83917,2.35862 -3.15608,4.42658 -4.49451,7.0578 -6.18137,15.74404 -6.19627,31.90675 l -0.0144,15.66667 h -11.4985 -11.49849 z M 49.910955,622.19941 c -11.37894,-2.89043 -17.18183,-18.46576 -12.8598,-34.51655 1.37401,-5.10269 13.74431,-23.17753 15.86255,-23.17753 0.53291,0 2.47602,-1.35 4.31802,-3 1.842,-1.65 6.33587,-5.06911 9.98638,-7.59801 3.6505,-2.52891 6.93728,-4.98922 7.30394,-5.46735 0.36667,-0.47813 3.29736,-2.60903 6.512649,-4.73532 3.21529,-2.12629 7.21656,-4.78831 8.89171,-5.91559 4.16311,-2.80153 14.349146,-13.18829 17.059426,-17.39558 5.04875,-7.83743 3.49746,-21.96266 -3.08889,-28.12579 C 89.361804,478.66653 51.276015,477.4243 31.100345,489.89333 l -4.08836,2.52669 -2.91164,-5.99301 c -7.5656,-15.57229 -0.80896,-29.77577 15.93217,-33.49183 5.70203,-1.26568 31.00161,-1.34874 37.1562,-0.12198 24.106915,4.80509 43.937905,19.16054 49.652695,35.94308 3.01344,8.84953 3.34042,26.79117 0.60748,33.33202 -3.68256,8.8136 -11.81715,18.03484 -23.43868,26.56971 -6.318486,4.64031 -11.788156,8.81457 -12.154826,9.27613 -0.36667,0.46158 -3.23724,2.44943 -6.37906,4.41746 -7.572719,4.74356 -16.217299,13.7403 -18.569979,19.3265 -3.56819,8.4723 -1.15753,21.16188 5.73747,30.2017 1.76636,2.31581 3.21157,4.53005 3.21157,4.92053 0,0.39047 -2.96123,1.98384 -6.58051,3.54081 -6.19851,2.66652 -13.44448,3.36188 -19.36392,1.85827 z M 842.52209,578.50533 V 563.172 h 15.3333 15.3333 v 15.33333 15.33333 h -15.3333 -15.3333 z m -658.66671,-28 V 531.172 h 20 20 v 19.33333 19.33333 h -20 -20 z m 225.33334,-28.66667 v -17.33333 h 16 16 v 17.33333 17.33334 h -16 -16 z m 433.43867,-4.96744 c 0.3526,-17.48185 5.9907,-33.73461 15.2107,-43.84728 0.7429,-0.81476 2.9761,-3.55064 4.9627,-6.07974 1.9867,-2.52911 4.9867,-6.10734 6.6667,-7.95162 1.68,-1.84428 5.1546,-5.91196 7.7212,-9.03928 2.5667,-3.12732 5.2953,-6.38248 6.0636,-7.23368 3.2,-3.5452 11.3136,-16.70797 14.3818,-23.33161 3.8759,-8.36764 4.5043,-22.42465 1.2832,-28.70791 -7.234,-14.11084 -27.0035,-21.505 -49.3169,-18.44537 -5.7264,0.78521 -11.6117,1.73471 -13.0783,2.11 -9.3911,2.403 -20.76743,6.14421 -24.40767,8.02665 l -4.25902,2.20243 v -13.76639 -13.76638 l 4.33334,-1.56094 c 2.38333,-0.8585 6.73335,-1.93837 9.66665,-2.3997 2.9333,-0.46134 5.675,-1.04791 6.0926,-1.3035 0.4176,-0.2556 3.7176,-0.86278 7.3333,-1.34932 3.6158,-0.48653 7.7741,-1.13248 9.2408,-1.43545 3.9634,-0.81875 34.1453,-0.7068 38,0.14093 1.8333,0.4032 4.9824,1.03531 6.998,1.40468 4.0189,0.73651 14.0347,4.57596 20.3836,7.81391 5.3976,2.75276 15.3,12.35979 18.723,18.16461 10.1268,17.17315 8.7059,43.87815 -3.1137,58.51994 -2.0117,2.49198 -12.0937,12.99198 -22.4045,23.33333 -10.3107,10.34136 -20.3034,21.20247 -22.2059,24.1358 -4.5458,7.00907 -7.7139,21.76517 -7.7139,35.92988 v 11.40345 h -15.4114 -15.4115 z M 195.78834,504.83866 c -0.0369,-2.75 -0.27504,-7.4 -0.52926,-10.33333 -0.25424,-2.93333 -0.84502,-14.63333 -1.31286,-26 -0.46784,-11.36667 -1.16814,-22.83221 -1.55621,-25.47897 l -0.7056,-4.81232 7.64963,1.31793 c 14.14173,2.43644 32.36642,-2.86819 39.5552,-11.51324 8.31657,-10.00133 10.97413,-29.0604 5.60261,-40.18007 -3.46545,-7.1739 -13.01001,-16.24122 -19.05065,-18.0981 -8.31774,-2.55686 -21.54078,-2.53651 -29.2508,0.0449 -13.58451,4.54847 -23.00168,20.09668 -23.00168,37.97693 v 4.74294 h -14.84927 -14.84927 l 0.71974,-13.66667 c 0.97526,-18.51885 4.31098,-26.94608 14.94184,-37.74849 16.65804,-16.92687 42.63097,-23.48529 71.68209,-18.10043 17.5494,3.25294 34.63143,16.18146 41.64047,31.51559 5.00573,10.95137 5.07087,11.29085 5.54596,28.91009 0.60185,22.32035 -3.65848,33.8339 -17.34005,46.86154 -9.77523,9.30801 -20.48229,14.07978 -33.91729,15.11582 l -10.90756,0.84112 -0.17016,5.46906 c -0.0936,3.00797 -0.31745,6.66904 -0.49745,8.1357 -0.18001,1.46667 -0.73724,7.76667 -1.23829,14 -1.33258,16.57795 -0.96471,16 -10.18395,16 h -7.91015 l -0.0671,-5 z m 460.73372,-3.22264 c -11.60249,-6.4171 -13.17436,-21.29208 -3.14202,-29.73372 6.64538,-5.59173 19.0522,-4.21249 25.36569,2.81986 5.786,6.4448 3.99584,19.46608 -3.45778,25.15122 -4.7512,3.62392 -13.85459,4.47899 -18.76589,1.76264 z m -245.96414,-52.77736 0.0359,-25 5.54608,-3.33333 c 23.59104,-14.17873 40.99508,-29.01559 45.4484,-38.74448 5.68831,-12.42692 6.18585,-14.73715 5.81252,-26.98837 -0.4334,-14.22195 -2.13325,-18.37599 -10.42332,-25.47196 -9.56498,-8.18727 -25.66066,-11.32619 -43.78876,-8.53954 -9.0424,1.39002 -28.84851,8.40248 -34.73554,12.29832 -2.86402,1.89532 -5.52017,3.44603 -5.90256,3.44603 -0.38238,0 -0.69525,-7.73005 -0.69525,-17.17789 0,-16.70914 0.0819,-17.1978 3,-17.90724 1.65,-0.40114 5.4,-1.39028 8.33333,-2.19811 2.93334,-0.80783 6.83334,-1.77313 8.66667,-2.14512 1.83333,-0.372 4.37819,-0.99159 5.65523,-1.37688 6.45082,-1.94625 21.04854,-3.44148 33.04256,-3.38448 23.33453,0.1108 40.78164,6.24553 53.34464,18.75677 9.09331,9.05584 11.34857,12.57199 14.44505,22.521 6.86272,22.04996 0.64656,51.28451 -14.59177,68.62503 -5.78172,6.57932 -28.17602,24.95359 -30.41307,24.95359 -0.69323,0 -1.46041,0.53353 -1.70487,1.18564 -0.24444,0.65209 -3.14444,2.69252 -6.44444,4.53428 l -6,3.34864 -0.36994,18.79905 -0.36994,18.79905 h -13.9634 -13.96338 z m 545.29747,7.66667 V 447.172 h 9.3333 9.3334 v 9.33333 9.33333 h -9.3334 -9.3333 z M 660.44968,440.83866 c 0.37737,-3.48333 0.97533,-9.03333 1.3288,-12.33333 1.33617,-12.47447 4.56812,-21.10776 18.28017,-48.83067 14.7624,-29.84645 16.4992,-35.29121 16.32227,-51.16933 -0.1192,-10.70137 -0.69889,-13.90791 -3.73593,-20.66667 -1.97714,-4.4 -5.51363,-10.02513 -7.85886,-12.5003 -14.98912,-15.81958 -44.86019,-13.73767 -54.23536,3.78 -2.22587,4.15908 -0.83897,11.87173 4.02412,22.37846 2.17095,4.69034 3.94717,10.01583 3.94717,11.83442 0,7.35577 -6.29861,13.84076 -13.44298,13.84076 -4.02304,0 -9.11983,-3.88847 -12.8575,-9.80934 -2.83482,-4.49064 -3.33074,-6.7806 -3.1693,-14.63448 0.31133,-15.14588 2.21024,-20.14053 11.18453,-29.41832 11.66819,-12.0628 28.43972,-18.00074 48.95192,-17.3314 34.50591,1.12598 56.26808,19.84868 57.19608,49.20763 0.32128,10.16427 -4.73436,29.50296 -8.53813,32.65981 -1.0952,0.90894 -1.99128,2.17396 -1.99128,2.81115 0,1.8804 -10.8912,15.69312 -24.66667,31.2834 -16.12268,18.24672 -22.43176,30.63095 -24.23167,47.56488 -0.74077,6.96945 -1.10492,7.66667 -4.0042,7.66667 -3.0122,0 -3.15121,-0.35171 -2.50318,-6.33334 z M 958.37449,426.172 c -0.081,-2.75 -0.047,-6.27998 0.075,-7.8444 0.1224,-1.56442 -1.0089,-4.86442 -2.5141,-7.33334 -5.2469,-8.6063 -2.5232,-21.93446 5.1303,-25.10465 2.7331,-1.13207 6.6934,-1.44933 11.3134,-0.90635 l 7.10832,0.83546 6.7373,-7.12371 c 10.7475,-11.36395 11.882,-20.65656 3.9085,-32.01488 -3.1777,-4.52669 -13.71662,-11.50813 -17.37222,-11.50813 -5.8602,0 1.1869,14.10318 8.67492,17.36106 3.2091,1.39618 3.4254,1.89847 2.0851,4.8403 -1.3446,2.95092 -2.0429,3.19458 -6.91402,2.41245 -6.2741,-1.00743 -16.2578,-5.55045 -19.7536,-8.98881 -1.3281,-1.30626 -2.771,-4.15626 -3.2064,-6.33334 -0.9146,-4.57312 -1.4387,-4.7217 -5.293,-1.50078 -3.9964,3.33958 -8.4626,12.96141 -9.0712,19.54245 -0.1285,1.39045 -1.2726,1.39025 -11.8119,-0.001 l -6.3844,-0.84339 0.7912,-5.30485 c 1.214,-8.13934 5.1924,-16.25246 10.8476,-22.12126 6.945,-7.20734 10.3254,-9.1552 20.3438,-11.72224 6.0044,-1.53854 9.369,-3.23509 11.3103,-5.70298 1.5198,-1.93212 4.2736,-5.06723 6.1196,-6.96692 1.846,-1.8997 6.0563,-6.65591 9.35632,-10.56939 3.3,-3.91347 6.6011,-7.78701 7.3357,-8.60787 2.1839,-2.44029 9.0372,-13.08245 12.2784,-19.06653 8.47499,-15.64736 12.10159,-37.85951 8.10879,-49.66459 -2.3397,-6.91776 -9.78279,-15.71292 -16.17149,-19.10932 -4.6024,-2.44674 -7.7249,-2.95418 -18.26532,-2.9683 -10.8968,-0.0145 -13.5828,0.44332 -18.7922,3.20374 -9.1397,4.84307 -12.4403,10.52635 -12.3702,21.29982 0.062,9.53474 2.3114,15.4287 8.3619,21.91177 3.4321,3.67752 3.4538,3.81023 0.9263,5.66667 -3.5061,2.57513 -15.9073,2.42368 -21.5699,-0.26343 -7.1209,-3.37905 -9.7035,-8.07767 -9.9808,-18.15835 -0.2887,-10.49192 2.7133,-17.6371 11.1539,-26.54802 6.0747,-6.41316 10.5683,-9.61564 18.9849,-13.53012 2.9334,-1.36426 6.391,-3.04202 7.6837,-3.72838 4.3636,-2.3175 21.0972,-5.20473 30.16152,-5.20473 22.32309,0 38.64819,9.83981 44.81779,27.01353 2.8711,7.99192 3.5376,21.17712 1.499,29.65314 -4.3721,18.17832 -12.3608,30.95812 -33.6079,53.76353 -5.92849,6.36339 -13.57519,14.5698 -16.99249,18.23647 -3.4174,3.66666 -6.21672,7.069 -6.22082,7.56072 0,0.49173 1.9425,1.2941 4.32592,1.78304 24.96879,5.12228 38.38639,31.17888 27.56549,53.5318 -1.5097,3.11873 -8.1034,10.94757 -14.65259,17.39742 -6.5492,6.44986 -12.2931,12.91542 -12.7644,14.3679 -0.4712,1.45248 -2.0013,4.18884 -3.40002,6.08078 -2.3947,3.239 -3.4441,7.33656 -3.6566,14.27834 -0.085,2.76757 -0.7117,3 -8.0919,3 h -8 z M 36.336865,409.58233 c -7.52903,-2.02328 -12.83704,-10.20079 -12.83704,-19.77671 0,-10.4041 5.31157,-17.62634 15.10133,-20.5336 17.0975,-5.07741 31.90315,7.8084 28.74804,25.0203 -0.93221,5.08544 -6.93101,12.73122 -11.2915,14.39161 -4.3462,1.65495 -15.08508,2.14416 -19.72083,0.8984 z m -2.14818,-57.18381 c -6.61313,-3.8518 -8.93072,-23.2208 -4.38171,-36.61962 6.87734,-20.2567 16.28857,-33.38885 33.40114,-46.6069 8.3265,-6.43154 15.8424,-14.26639 19.185819,-20 3.42746,-5.87774 4.71559,-17.25019 2.63115,-23.2296 -3.21801,-9.23122 -16.928269,-18.35998 -29.112699,-19.38424 -9.31634,-0.78316 -18.10984,2.27918 -31.51448,10.97497 -8.75201,5.67755 -14.8643703,6.75257 -18.8247303,3.31081 -5.79158003,-5.03317 -7.30807,-13.92913 -3.41827,-20.05218 8.5581103,-13.47163 31.4213703,-21.42788 57.2265903,-19.91448 12.81818,0.75174 13.92831,0.95346 23.711669,4.30848 9.18285,3.14909 26.095546,16.25686 26.095546,20.22473 0,0.48667 0.81712,1.83211 1.8158,2.98985 5.15118,5.97154 7.78132,26.26146 4.87911,37.63911 -3.01599,11.82363 -11.64669,24.69968 -23.231736,34.65917 -8.83139,7.59223 -21.383049,20.27195 -24.226189,24.47338 -3.0661,4.5309 -6.79587,14.04452 -7.84091,20 -0.38605,2.2 -1.01428,5.5 -1.39607,7.33333 -0.38179,1.83333 -1.00697,5.13333 -1.38929,7.33333 -0.86589,4.98267 -4.53564,10.15336 -8.73924,12.31368 -3.86728,1.98747 -11.66039,2.11647 -14.8715,0.24618 z M 234.24565,266.172 l 0.39027,-24.33334 h 24.60973 24.60974 v 23.94424 23.94426 l -25,0.38908 -25.00001,0.38909 z m 347.32593,-2.50626 c -2.35609,-1.1617 -5.80609,-4.108 -7.66666,-6.54733 -2.82576,-3.70476 -3.38286,-5.8732 -3.38286,-13.16737 0,-8.48148 0.16572,-8.90518 5.77144,-14.75563 5.38688,-5.62205 6.25312,-6.03393 13,-6.18139 9.9334,-0.21709 10.63843,-0.0501 15.5742,3.68796 8.2895,6.27804 11.27355,17.58332 7.23903,27.42548 -0.81664,1.99218 -3.99729,5.44218 -7.06812,7.66667 -4.50357,3.26237 -6.89835,4.03867 -12.38327,4.01417 -3.73997,-0.0167 -8.72766,-0.98085 -11.08376,-2.14256 z m 236.21973,-8.84665 c -0.36924,-0.9622 -0.50587,-11.62643 -0.30363,-23.69828 l 0.36772,-21.94881 23.33329,-0.36284 23.3334,-0.36284 -0.2683,23.69617 -0.2682,23.69617 -22.7615,0.36495 c -17.8162,0.28565 -22.9073,-0.0152 -23.43278,-1.38452 z M 420.52206,235.29806 c -1.46667,-0.65028 -4.42834,-3.04406 -6.5815,-5.3195 -8.25917,-8.72828 -5.31209,-27.59015 5.06063,-32.38907 9.68719,-4.48176 24.59805,-2.06788 28.80451,4.66307 1.00346,1.60569 2.10037,7.21204 2.43757,12.45853 l 0.61309,9.53911 -5.2389,5.61637 c -4.95063,5.30733 -5.71186,5.64383 -13.83382,6.11511 -4.72721,0.27428 -9.79492,-0.0333 -11.26158,-0.68362 z m -185.55865,-24.4594 c 1.08275,-21.82921 2.81588,-27.40542 10.8783,-35 5.20664,-4.90452 11.45798,-10.00286 15.53121,-12.66666 5.50451,-3.59982 17.15167,-15.838 18.67888,-19.62674 0.82176,-2.03862 1.65785,-6.91708 1.858,-10.84098 0.81977,-16.07262 -9.06269,-26.97209 -25.05011,-27.62802 -11.90661,-0.48849 -20.1768,4.29465 -26.67724,15.42907 -3.42279,5.86279 -4.34076,8.81471 -5.90855,19 -0.67178,4.36429 -1.56622,5.43312 -4.41852,5.28 -1.60654,-0.0863 -15.28436,-1.8854 -17.33333,-2.28 -1.244,-0.23957 -5.20291,-0.8138 -8.79757,-1.27605 -3.59467,-0.46226 -7.73576,-1.06835 -9.20243,-1.34686 -1.46667,-0.27852 -3.11667,-0.5523 -3.66667,-0.60841 -3.81148,-0.38883 2.5252,-24.22571 9.90879,-37.27416 8.29804,-14.66451 29.46812,-31.2623 43.69041,-34.25421 1.87044,-0.39348 5.2008,-1.11925 7.4008,-1.61283 2.20001,-0.49357 10.60001,-0.88913 18.66667,-0.87901 17.28618,0.0217 29.96102,3.25922 42.66667,10.89838 21.43615,12.88828 31.68909,31.05261 31.20244,55.27891 -0.38544,19.18787 -5.62011,31.01704 -19.81891,44.78627 -8.76736,8.50212 -8.98889,8.68448 -17.3571,14.28797 -17.42583,11.66863 -20.12786,15.72163 -20.53515,30.80248 l -0.15795,5.84791 -21.1844,0.008 -21.1844,0.008 0.81016,-16.33334 z m -116.44136,-5 v -9.33333 h 9.33333 9.33334 v 9.33333 9.33334 h -9.33334 -9.33333 z M 583.8554,171.172 c 0,-16.86667 0.45,-30.71258 1,-30.76868 0.55,-0.0561 2.2,-0.3261 3.66666,-0.59995 1.46667,-0.27387 5.06667,-0.82643 8,-1.22789 5.44156,-0.74478 16.9984,-4.74595 22.35732,-7.7405 6.85076,-3.82817 16.75688,-15.43605 18.6758,-21.88407 2.24319,-7.5376 2.64668,-28.43973 0.70848,-36.70085 -3.65426,-15.57549 -13.39061,-27.48468 -25.38122,-31.04551 -8.77224,-2.60507 -23.01691,-1.82478 -29.02704,1.59004 -5.08815,2.89097 -5.0178,2.50648 -3.29027,17.98291 1.78808,16.01882 -3.50224,22.3945 -18.58223,22.3945 -7.07379,0 -9.32627,-0.5321 -11.51408,-2.71992 -9.01049,-9.01049 -6.49736,-26.79089 5.33395,-37.73763 6.02636,-5.5758 18.64356,-12.33012 25.40425,-13.59958 29.6346,-5.5645 53.06263,-0.25774 69.63524,15.77332 3.9519,3.82276 8.70448,9.35047 10.56131,12.2838 3.13432,4.9515 4.25052,7.71606 7.62803,18.89298 1.77309,5.86754 1.58749,29.18571 -0.29004,36.44036 -3.92043,15.14823 -15.59782,31.08911 -29.57622,40.37472 -5.85804,3.89139 -26.84508,11.6144 -31.64077,11.64348 -1.65139,0.0107 -4.35251,0.38 -6.00251,0.82219 -2.92162,0.78296 -3,1.27016 -3,18.64845 v 17.84449 h -7.33333 -7.33333 z m 232.51739,21.87989 c -0.80769,-3.21809 1.05353,-26.46599 2.8666,-35.80531 2.0312,-10.46312 10.0543,-28.99954 14.5,-33.50042 0.7972,-0.807 2.6493,-3.11491 4.116,-5.12867 1.4667,-2.01377 4.0184,-5.26283 5.6706,-7.22012 4.1131,-4.87286 12.0083,-20.11198 12.9202,-24.93835 2.7445,-14.52607 -10.138,-18.68091 -13.9562,-4.50112 l -1.4702,5.4597 -20.9155,-0.91575 c -11.50357,-0.50367 -23.91555,-1.13511 -27.58222,-1.4032 -3.66667,-0.26809 -7.18173,-0.51126 -7.81125,-0.54038 -1.66779,-0.0772 0.25892,-20.60231 2.61481,-27.85549 4.24453,-13.06783 12.61305,-26.10815 21.40593,-33.35599 8.01576,-6.60726 21.70213,-13.04187 31.59573,-14.8546198 11.0852,-2.03109 31.0315,-0.99601 39.4743,2.0484598 19.4727,7.02181 32.4407,20.69332 40.4375,42.63136 1.5981,4.38403 2.691,12.21045 3.192,22.8578 0.8588,18.25032 -0.7334,25.79331 -8.2625,39.14221 -8.1837,14.5096 -11.2114,18.47162 -23.6762,30.9828 -12.3577,12.40353 -20.6751,26.97372 -24.1761,42.35053 l -1.6696,7.33333 -24.196,0.36328 -24.19611,0.3633 z m -694.9677,-22.21323 c 0.72236,-13.75002 4.12598,-19.76549 20.36509,-35.9927 15.69236,-15.68086 18.06154,-20.23408 15.42614,-29.64681 -3.35184,-11.97158 -14.55098,-20.63525 -26.67427,-20.63525 -7.11019,0 -16.06247,3.76609 -20.606,8.66864 -2.82296,3.04602 -7.84345,14.69743 -8.00596,18.57998 -0.05,1.19409 -7.247486,1.21632 -13.506536,0.0417 -1.40149,-0.26301 -3.07486,-0.52411 -3.71858,-0.58022 -1.9436,-0.1694 0.39841,-10.83836 3.91697,-17.84365 7.87859,-15.68592 23.105436,-23.86296 42.839356,-23.00537 10.53679,0.45791 15.27696,1.44421 21.74742,4.52504 8.61952,4.10407 14.1011,9.29941 18.0641,17.12079 3.25055,6.41526 3.9338,9.39304 3.92387,17.10119 -0.0171,13.27496 -3.49217,19.34878 -20.98797,36.68325 -7.88334,7.81064 -14.37924,14.75217 -14.43535,15.42563 -0.0561,0.67345 -0.36925,2.42445 -0.69588,3.89112 -1.00772,4.52504 -1.68088,9.19736 -1.77691,12.33333 -0.0849,2.77372 -0.70628,3 -8.2376,3 h -8.14573 z m 302.4503,-0.53609 c -5.20961,-1.71631 -8.30053,-3.96876 -10.63957,-7.7534 -7.42864,-12.0198 -5.02738,-29.73628 5.59712,-41.29525 1.30668,-1.42162 2.37578,-3.03655 2.37578,-3.58874 0,-0.5522 3.75,-3.86107 8.33334,-7.35306 4.58333,-3.49199 8.63333,-6.67705 9,-7.07793 0.36666,-0.40087 4.56666,-3.38885 9.33333,-6.63994 4.76667,-3.2511 8.86667,-6.4011 9.11111,-7 0.24445,-0.59891 1.19741,-1.08892 2.11771,-1.08892 2.01277,0 18.19089,-15.28116 21.2152,-20.03898 4.91722,-7.73576 3.24814,-22.87372 -3.12354,-28.32933 -15.95262,-13.65906 -52.46029,-14.77836 -72.76295,-2.23087 l -4.10913,2.53954 -3.04721,-6.74247 c -4.31454,-9.54661 -3.44575,-19.9456 2.09932,-25.1279198 8.11658,-7.58561004 12.94786,-8.76077004 35.16616,-8.55383004 14.89965,0.13877 17.89233,0.58396 28.22731,4.19916004 19.12504,6.6899698 34.03585,20.2868198 38.32898,34.9513598 2.11978,7.24079 2.20091,24.50148 0.14063,29.92042 -1.68997,4.44499 -13.00964,20.73509 -14.43096,20.76755 -0.51295,0.0117 -3.03263,1.80531 -5.59929,3.98576 -6.88643,5.85021 -6.96856,5.91132 -11.66667,8.68044 -2.38333,1.40477 -4.33333,3.02476 -4.33333,3.59998 0,0.57522 -0.66366,1.04586 -1.4748,1.04586 -1.8301,0 -11.22269,7.25046 -16.3631,12.63125 -11.10392,11.62315 -11.7502,24.52548 -1.95063,38.94232 2.08368,3.06545 3.78852,5.84157 3.78852,6.16913 0,0.32758 -2.96122,1.86947 -6.5805,3.42644 -6.15239,2.64668 -14.13767,3.4819 -18.75283,1.96143 z"
     id="path817"
     inkscape:connector-curvature="0" />
</svg>
